<svg id="visual" viewBox="0 0 900 600" width="900" height="600" xmlns="http://www.w3.org/2000/svg" xmlns:xlink="http://www.w3.org/1999/xlink" version="1.1"><rect x="0" y="0" width="900" height="600" fill="#ffffff"></rect>
<path d="M0 77L16.7 86.3C33.3 95.7 66.7 114.3 100 123C133.3 131.7 166.7 130.3 200 122.7C233.3 115 266.7 101 300 101C333.3 101 366.7 115 400 128.8C433.3 142.7 466.7 156.3 500 146.7C533.3 137 566.7 104 600 98.5C633.3 93 666.7 115 700 113.3C733.3 111.7 766.7 86.3 800 84.2C833.3 82 866.7 103 883.3 113.5L900 124L900 0L883.3 0C866.7 0 833.3 0 800 0C766.7 0 733.3 0 700 0C666.7 0 633.3 0 600 0C566.7 0 533.3 0 500 0C466.7 0 433.3 0 400 0C366.7 0 333.3 0 300 0C266.7 0 233.3 0 200 0C166.7 0 133.3 0 100 0C66.7 0 33.3 0 16.7 0L0 0Z" fill="#0d6ffd" stroke-linecap="round" stroke-linejoin="miter"></path></svg>