<svg id="visual" viewBox="0 0 900 600" width="900" height="600" xmlns="http://www.w3.org/2000/svg" xmlns:xlink="http://www.w3.org/1999/xlink" version="1.1"><rect x="0" y="0" width="900" height="600" fill="#ffffff"></rect><path d="M0 521L16.7 511.7C33.3 502.3 66.7 483.7 100 475C133.3 466.3 166.7 467.7 200 475.3C233.3 483 266.7 497 300 497C333.3 497 366.7 483 400 469.2C433.3 455.3 466.7 441.7 500 451.3C533.3 461 566.7 494 600 499.5C633.3 505 666.7 483 700 484.7C733.3 486.3 766.7 511.7 800 513.8C833.3 516 866.7 495 883.3 484.5L900 474L900 601L883.3 601C866.7 601 833.3 601 800 601C766.7 601 733.3 601 700 601C666.7 601 633.3 601 600 601C566.7 601 533.3 601 500 601C466.7 601 433.3 601 400 601C366.7 601 333.3 601 300 601C266.7 601 233.3 601 200 601C166.7 601 133.3 601 100 601C66.7 601 33.3 601 16.7 601L0 601Z" fill="#1372fd" stroke-linecap="round" stroke-linejoin="miter"></path></svg>